<?xml version="1.0" encoding="UTF-8"?>
<svg id="Layer_2" data-name="Layer 2" xmlns="http://www.w3.org/2000/svg" width="857.6" height="258.68" viewBox="0 0 857.6 258.68">
  <defs>
    <style>
      .cls-1, .cls-2, .cls-3 {
        fill: url(#wash);
      }
    </style>

    <linearGradient id="wash" gradientUnits="userSpaceOnUse"
                    x1="0" y1="0" x2="857.6" y2="0" spreadMethod="reflect">
      <stop offset="0" stop-color="#e68b23"/>
      <stop offset="1" stop-color="#de2984"/>
      <animateTransform attributeName="gradientTransform" type="translate"
                        from="0 0" to="1715.2 0" dur="5s" repeatCount="indefinite"/>
    </linearGradient>
  </defs>
  <path class="cls-1" d="M383.73,250.3 C379.61,254.71,374.93,258.69,368.59,258.68 L201.69,258.68 L237.14,228.99 L362.21,228.99 L362.21,198.08 L237.84,198.08 C233.15,198.1,228.33,196.19,225.2,193.4 L213.5,182.96 C210.43,180.22,209.89,175.91,209.41,171.62 L209.41,25.87 L246.72,25.87 L246.72,165.37 L259.81,165.37 L362.44,165.37 L362.44,26.17 L399.56,26.17 L399.56,224.57 C398.95,229.17,399.03,233.86,396.07,237.03 L383.71,250.29 Z"/>
  <path class="cls-1" d="M184.17,197.61 L33.86,197.61 C29.24,197.8,23.98,196.46,20.99,193.55 L3.75,176.74 C0.36,173.44,0.54,168.3,-0.01,163.49 L-0.01,0.09 C-0.01,0.09,38.67,0,38.67,0 L38.67,165.02 L49.88,165.02 L183.93,165.02 L183.93,197.61 Z"/>
  <path class="cls-2" d="M472.61,197.56 L435.42,197.56 L435.42,63.94 C435.48,58.96,438.58,56.24,441.69,53.72 L457.74,40.7 L470.81,29.82 C474.18,27.01,479.16,27.72,483.9,27.31 L625,27.31 L625,60.26 L481.18,60.26 C477.52,62.07,475,64.46,472.58,67.94 L472.58,197.57 Z"/>
  <path class="cls-3" d="M853.02,56.43 L823.49,31.06 C819.79,27.88,814.6,27.89,809.6,27.4 L659.62,27.4 L659.62,60.25 L817.96,60.25 L817.96,95.24 L675.08,95.24 C660.69,95.29,649.73,100.4,649.74,114.74 L649.74,171.75 C649.75,175.58,651.21,180.13,654.2,182.66 L667.05,193.55 C670.09,196.12,674.86,197.39,679.31,197.39 L857.6,197.39 L857.6,65.96 C857.62,61.87,855.71,58.97,853.04,56.43 Z M819.56,165.22 L688.06,165.22 L688.06,124.36 L819.56,124.36 L819.56,165.22 Z"/>
</svg>
